<?xml version="1.0" encoding="utf-8"?>
<!-- Generator: Adobe Illustrator 27.8.0, SVG Export Plug-In . SVG Version: 6.00 Build 0)  -->
<svg version="1.1" xmlns="http://www.w3.org/2000/svg" xmlns:xlink="http://www.w3.org/1999/xlink" x="0px" y="0px"
	 viewBox="0 0 2048 2048" style="enable-background:new 0 0 2048 2048;" xml:space="preserve">
<style type="text/css">
	.st0{fill:#FBCD36;}
	.st1{fill:#FFFFFF;stroke:#501301;stroke-width:5;stroke-miterlimit:10;}
	.st2{fill:#501301;}
	.st3{fill:#EC1923;stroke:#501301;stroke-width:5;stroke-miterlimit:10;}
	.st4{fill:#2C9136;}
</style>
<g id="Calque_2">
	<path class="st0" d="M737.7,1288.2c17.7-32.5,22.7-52.6,38.8-56.2c11.2-2.5,21.4,4.5,25.5,7.1c32.6,21.1,76.9,27.1,155.2,37.8
		c31.4,4.3,96.4,13.1,165.4-7.1c33.9-10,69.5-14.9,102.1-28.6c18.4-7.7,31.2-14.7,43.9-9.2c16.2,7.1,18.7,28.6,28.6,66.4
		c11.8,45,17.7,67.5,28.6,86.8c20.9,36.9,54.1,57.1,101.1,85.8c33.7,20.5,43.9,21.3,68.4,41.9c24.6,20.6,44.7,37.5,50,65.4
		c8.4,43.6-25.9,80-33.7,87.8c-6.7,6.7-36.4,36.3-76.6,33.7c-39.8-2.5-65.1-35-91.9-69.4c-24.8-31.9-37.3-47.9-38.8-71.5
		c-0.8-11.5,0.8-28-10.2-37.8c-6.5-5.7-14.5-6.7-21.4-7.1c-31.4-2-58.3,5.5-68.4,8.2c-62.3,16.5-72.3,4.5-86.8,20.4
		c-22,24.3-10.8,65.3-10.2,67.4c8.8,30.7,29,31.4,52.1,65.4c24.2,35.6,27.6,72.6,30.6,106.2c3.2,35.3,5.9,63.9-9.2,96
		c-14.4,30.6-37,47.6-50,57.2c-35.2,25.8-69.9,31.4-103.1,36.8c-38,6.1-59.5,9.6-85.8,0c-38.4-14-58.2-45.5-67.4-60.3
		c-28-44.7-26.8-90.1-25.5-106.2c0.9-11.4,8.4-35.2,23.5-82.7c10.5-33,15.9-49.8,24.5-65.4c7.7-13.9,14.5-22.7,24.5-43.9
		c1-2.2,8.3-18,13.3-39.8c1.9-8.6,2.9-12.9,2-16.3c-3-12.2-19.5-19.4-55.1-27.6c-35.6-8.1-52-8.4-96-14.3
		c-52.3-7-58.4-10.5-66.4-4.1c-18.3,14.6,0.3,43.9-16.3,102.1c-5.4,19-10.7,36.5-26.6,52.1c-23.4,22.9-53.5,25.7-62.3,26.6
		c-10.2,0.9-31.7,2.7-55.1-9.2c-20.3-10.3-31.6-25.5-36.8-33.7c-3.5-5.6-12.8-21.6-14.3-43.9c-1.9-27.7,9.2-48.4,17.4-63.3
		c6.7-12.2,16.6-26.7,57.2-64.3c49.1-45.5,51.6-39.8,72.5-64.3c7.9-9.3,21.6-30.4,49-72.5C725.9,1306.7,736.8,1289.9,737.7,1288.2z"
		/>
	<path class="st0" d="M726.5,1197.3c-7.3,8.2,9.4,25.4,9.2,70.5c-0.1,11.7-0.2,44.1-16.3,74.6c-21.4,40.4-70.8,77.6-120.5,72.5
		c-34.6-3.5-55.9-26.6-97-72.5c-38.5-43-60.6-82-103.1-158.3c-33.5-60-50.5-90.8-66.4-132.8c-9.6-25.3-17.6-55-33.7-114.4
		c-19.4-71.7-29.2-108.2-30.6-137.9c-2.2-44.7,5.7-78.8,16.3-119.5c44.1-168.4,66.1-252.7,104.7-306.6
		c45.4-63.5,96.2-99.8,172.1-154c22.7-16.2,81.4-56.8,165.4-97c101-48.3,165-79,251.2-77.6c24.6,0.4,63.4,8.4,140.9,24.5
		c86,17.8,129,26.7,170.6,41.9c101.3,36.9,169,92,208.3,124.6c33.3,27.6,93.6,78.4,149.1,163.4c12.3,18.8,58.5,91.6,88.9,200.2
		c60,214.3,9,391.8-1,424.9c-26.6,87.9-62.7,147.1-91.9,194c-55.7,89.6-111.7,179.7-205.3,198.1c-27.1,5.3-45.4,2.3-102.1-8.2
		c-195.7-36.1-293.6-54.2-318.6-63.3C849.6,1283.4,744.8,1176.9,726.5,1197.3z"/>
</g>
<g id="Calque_3">
	<path class="st1" d="M1082.6,521.5c-6.8,3.5-9.8,9.7-12.6,15.3c-7.9,16.2-4.2,31.9-3.1,36.1c2,7.3,4.9,17.9,15,23.8
		c1.2,0.7,10.4,5.9,21.1,3.1c9.4-2.5,14.4-9.6,20.1-17.7c2.7-3.9,7.1-10.3,9.2-19.7c1.4-6.4,3.3-15.1-1-23.5
		c-3.8-7.4-10.4-10.6-16.7-13.6C1107.9,522.1,1094.3,515.5,1082.6,521.5z"/>
	<path class="st1" d="M1289.9,690.7c-3.8,2.4-4.2,7.5-5.1,16.7c-0.2,2.2-0.8,10.4,2,20.4c1.6,5.5,2.4,8.2,4.8,9.9
		c5.5,3.7,14.4-0.2,19.1-3.7c1.1-0.8,10-7.7,9.5-19.1c-0.3-8.8-6.1-14.4-8.5-16.7C1306.5,693.3,1296.1,686.9,1289.9,690.7z"/>
	<path class="st1" d="M1065.2,852.4c-4.4,4.8-0.4,14.9,1.4,19.4c5.1,13.1,11.5,13.8,14,22.8c2,7.6-0.7,13.9-6.1,26.6
		c-9.7,22.6-19.5,27.1-17,35.7c3,10.5,20.4,13.4,21.8,13.6c13.1,2,23.4-4.5,29.6-8.5c13.5-8.6,19.5-20.4,21.8-24.9
		c2.7-5.3,8.2-16.9,6.8-32.3c-1.4-14.7-8.3-24.7-10.9-28.3c-1.4-2-6.4-8.6-15-14.6c-12.8-9-25-10.5-31.7-11.2
		C1072.6,849.9,1067.9,849.5,1065.2,852.4z"/>
	<path class="st1" d="M1249,900.1c-3.5,2.9-3.8,10.4-4.4,25.2c-0.3,6.4,0.1,12.3,0.7,24.2c0.9,16.8,1.8,21.1,5.1,25.2
		c1.3,1.6,4.4,4.8,9.2,6.5c8.6,2.9,16.6-1.3,22.5-4.4c5.3-2.8,16-8.4,21.4-21.4c1.3-3,5.6-13.9,1.4-26.2
		c-4.1-11.8-13.5-17.4-20.8-21.8C1281,905.4,1258.6,892,1249,900.1z"/>
	<path class="st1" d="M1090,1044.8c-0.9,1.1-2,2.9-1,15.7c1,12.3,2.3,14.1,2.7,22.8c0.3,5.3,0.6,12.5-1.4,21.1
		c-2.1,9.1-4.2,9.1-6.5,18.4c-2,8.2-3.8,15.8,0,23.1c4.3,8.4,13.3,11,14,11.2c9.9,2.8,18.8-2.6,28.9-8.9c6.4-4,14.7-9,21.1-19.4
		c6.1-10,7.2-19.5,7.8-25.9c0.7-6.2,1.4-13.1-1-21.4c-3.6-12.4-11.6-19.8-15.7-23.5c-10.4-9.4-21.1-12.2-26.6-13.6
		C1104.7,1042.4,1094.5,1039.8,1090,1044.8z"/>
	<path class="st1" d="M871.5,1043.4c-3,4.1,2.5,13.2,6.8,20.4c6.4,10.6,9.5,10.6,11.2,17.4c2.3,8.9-1.1,17.3-2,19.7
		c-1.9,4.8-2.7,3.8-7.1,12.3c-4.7,9-6.1,14.5-6.5,16.3c-1.4,6.2-2.1,9.6-0.3,12.6c3.7,6.4,15.3,5.5,16.7,5.4
		c12.1-0.9,20.3-9.4,25.9-15.3c4.2-4.4,13.7-14.7,16-30.6c1-7.4,0.1-13.4-0.3-16.3c-0.7-4.4-2.1-12.5-7.8-21.1
		c-5-7.5-10.9-11.7-13.3-13.3c-7.4-4.9-14-6.2-20.4-7.5C880.8,1041.5,873.9,1040.1,871.5,1043.4z"/>
	<path class="st1" d="M739.4,867.1c-3.6,6,7.6,20,8.5,21.1c5.8,7.1,9.5,7.2,11.6,12.9c2.7,7.6-1.1,15.6-2.7,19.1
		c-4.7,9.9-9.6,8.7-14,17.7c-5.4,11-2.7,22.1-2,24.5c1.1,4.2,3.3,12.5,10.2,16.7c11.9,7.3,29.5-2.4,37.8-9.2
		c12.4-10.2,16.2-24,18.4-32c3.4-12.3,2.6-22,2.4-24.2c-0.6-6.7-1.7-18.1-9.9-28.3c-6.8-8.4-15-11.6-23.5-15
		C765.3,866.2,743.5,860.3,739.4,867.1z"/>
	<path class="st1" d="M767.3,650.6c-2,2.7-0.5,4.4-1,16c-0.1,3.7-0.8,8.9-2,19.4c-1.9,15.7-2.7,18.1-1.4,23.1
		c0.9,3.6,2.6,10,7.8,12.9c8.5,4.7,20.9-2.9,26.9-8.5c5.6-5.3,7.9-10.9,11.2-19.1c4.4-10.8,6.8-16.7,5.1-24.2
		c-2.7-12.2-13.9-18.3-16-19.4C787.6,645.2,772.2,643.9,767.3,650.6z"/>
</g>
<g id="Calque_1">
	<g transform="translate(0.000000,2048.000000) scale(0.100000,-0.100000)">
		<path class="st2" d="M9690,20223c-363-28-628-57-690-74c-19-6-69-14-110-19c-41-4-93-13-115-20c-22-6-51-14-65-16
			c-176-33-297-59-350-75c-36-10-74-19-84-19s-39-7-65-15c-25-7-66-20-91-26c-25-7-49-16-55-20c-5-3-23-9-40-12c-31-5-164-43-200-57
			c-11-4-40-14-65-21s-49-16-55-19c-5-4-37-15-70-25s-64-21-70-25c-5-3-30-13-55-20c-25-8-56-20-70-27s-31-13-38-13s-30-8-50-19
			c-54-27-104-49-132-57c-30-8-109-43-205-90c-38-19-77-34-86-34s-22-6-28-14c-7-8-24-17-39-21s-34-12-42-19s-31-19-50-26
			c-19-8-51-23-70-35c-19-11-48-26-65-34c-16-7-37-17-45-22s-42-23-75-40c-67-33-116-62-157-90c-15-11-34-19-41-19c-8,0-21-7-28-16
			s-22-20-34-25c-11-6-29-15-40-22s-49-30-85-51c-36-22-129-82-208-135s-153-103-166-111s-35-24-50-35s-68-50-119-88
			c-50-37-112-84-137-105c-24-20-62-50-84-67c-82-63-106-82-177-144c-295-257-481-435-683-656c-61-66-113-122-116-125
			c-9-8-146-172-245-294c-77-95-146-186-275-360c-49-67-172-253-258-392c-48-77-93-149-100-160c-7-10-19-32-27-49c-9-16-25-46-37-65
			c-11-19-37-64-56-100c-20-36-48-87-63-115c-33-61-70-136-104-213c-15-31-31-66-37-77c-18-32-44-86-71-145c-13-30-31-71-40-90
			c-8-19-25-61-37-92c-12-32-26-60-31-63c-5-4-9-14-9-24c0-9-9-36-20-59c-11-22-20-47-20-55c0-7-7-22-15-33c-8-10-15-27-15-37
			c0-9-8-36-19-60c-10-23-26-64-36-92c-9-27-20-59-25-70s-11-31-13-45c-3-14-12-45-20-70c-9-25-28-85-43-135c-14-49-30-99-35-110
			c-13-30-50-175-56-215c-2-19-8-44-12-55c-11-25-26-83-40-155c-7-30-16-73-21-95c-26-112-48-234-60-334c-6-46-13-88-17-94
			c-3-5-10-46-15-91c-5-44-14-115-19-156c-6-41-14-122-18-180c-5-58-14-143-21-190c-18-120-19-1038-1-1130c7-36,17-119,21-185
			c5-66,13-154,20-195c6-41,15-109,20-150c8-74,28-199,50-315c6-33,15-82,20-110c5-27,13-68,18-90c24-100,31-134,43-190
			c7-33,16-64,20-70c4-5,9-28,12-50c2-22,12-65,22-95c9-30,19-66,22-80c2-14,8-34,13-45c16-39,60-182,60-197c0-9,9-37,19-64
			s26-71,34-99c20-63,37-112,53-150c7-16,16-43,20-60c4-16,13-39,20-50c8-11,14-25,14-33c0-7,9-32,20-54c11-23,20-50,20-59
			c0-10,4-20,9-24c5-3,19-31,31-63c12-31,28-72,36-89c8-18,21-50,30-70c35-82,56-129,64-143c5-8,26-49,46-90c78-162,91-187,118-235
			c9-16,35-64,57-105s48-88,59-105c11-16,26-43,35-60c18-36,59-106,94-160c14-22,31-49,37-60c32-57,125-197,226-340
			c16-22,36-51,46-65c9-14,55-76,102-139c47-62,90-122,96-133c7-11,27-36,46-56c19-21,59-68,90-107c31-38,70-86,88-105
			c17-19,70-80,118-134c114-131,480-497,612-613c248-217,500-418,648-515c14-9,32-28,39-42c12-24,11-28-23-58c-20-18-44-37-54-43
			c-10-5-35-25-56-43c-50-42-131-107-191-154c-190-148-260-207-337-285c-125-127-239-301-296-453c-7-19-17-39-22-45c-4-5-8-18-8-30
			c0-11-7-39-15-61c-65-188-65-550,0-738c8-22,15-50,15-61c0-12,4-25,9-30c4-6,17-32,27-60c10-27,33-76,51-108c18-33,33-62,33-66
			c0-5,9-16,20-26s20-22,20-26c0-22,76-116,175-216c100-102,211-188,314-244c20-10,43-23,51-29c8-5,33-16,55-25s48-21,57-26
			c10-5,27-9,37-9c11,0,22-4,25-9s41-16,83-26c43-9,87-20,98-25c22-9,165-22,255-23c123-1,380,42,432,73c10,5,25,10,33,10s23,4,33,9
			c9,5,35,17,57,26s47,20,55,25c8,6,44,26,80,45c36,20,92,55,124,78c82,58,256,234,302,304c21,32,41,60,44,63c7,7,26,42,66,123
			c20,40,44,88,54,107s21,52,25,73c4,20,11,40,16,43s9,17,9,32s7,47,16,71c8,24,21,71,29,105c7,34,19,79,25,101c7,22,16,60,20,85
			c8,42,27,116,55,220c7,25,18,72,25,105c6,33,18,76,25,95c8,19,17,54,20,77c10,67,25,72,126,45c20-5,51-17,69-26s43-16,54-16
			c12,0,34-7,50-15c15-8,37-15,47-15c11,0,27-4,37-9c31-16,149-51,172-51c12,0,36-6,53-14c18-8,48-17,67-19c19-3,60-11,90-20
			c30-8,80-20,110-26s93-20,140-32c80-19,119-26,335-64c145-26,135-21,135-59c0-19-13-61-28-93c-16-32-47-96-69-143
			c-23-47-51-107-63-135c-36-85-84-191-143-315c-19-41-38-85-41-97c-4-11-13-27-21-33c-8-7-15-22-15-33s-6-28-13-36
			c-7-9-26-47-42-86c-15-38-55-124-87-191c-32-66-58-123-58-127c0-3-27-62-59-129c-55-116-141-312-141-324c0-3-9-26-21-51
			c-11-25-23-62-26-82s-9-43-14-52s-15-52-24-95c-8-44-21-106-27-139c-8-39-13-148-12-310c1-218,3-263,23-355c12-58,27-118,33-135
			c5-16,13-48,17-70s17-61,29-87s22-52,22-57c0-6,10-32,21-58c12-27,31-68,42-93c10-25,23-52,28-60s16-31,26-50c9-19,24-46,33-60
			s34-52,56-85c139-215,348-430,549-567c22-15,58-40,80-55c55-37,302-163,320-163c8,0,30-9,50-20s46-20,60-20c13,0,26-4,30-9
			c3-5,38-17,77-26c40-9,77-20,83-25c5-4,33-10,60-13c28-3,100-13,160-22c87-13,148-15,290-11c99,4,203,11,230,17c28,6,75,14,105,18
			s66,12,80,18s59,20,100,33c111,33,258,90,315,121c28,15,66,35,85,46c47,25,107,63,224,143s359,321,436,435c91,135,117,176,146,231
			c19,35,38,72,43,82c10,17,55,118,71,157c5,11,14,38,21,60c6,22,15,45,19,50c4,6,10,24,13,40c3,17,13,50,22,75c9,24,19,67,22,95
			c3,27,9,55,13,60c4,6,13,55,20,110c14,110,8,478-9,575c-12,69-47,223-61,264c-6,17-21,64-34,104c-13,41-29,79-35,85s-11,19-11,29
			c0,16-49,125-79,178c-5,8-19,40-31,70s-26,62-31,70s-12,22-15,30s-24,53-46,100c-43,90-74,157-106,230c-11,25-39,86-62,135
			c-23,50-50,108-60,130c-33,71-77,169-95,210c-9,22-42,92-71,155c-30,63-61,129-69,145c-7,17-28,61-45,100c-56,122-52,148,25,158
			c105,13,312,50,327,58c10,5,25,9,34,9c17,0,178,37,289,66c33,9,78,20,100,24c121,27,172,41,220,60c11,4,40,13,65,20s56,16,70,21
			c14,4,45,13,70,19c25,7,59,17,75,24c54,23,101,36,128,36c22,0,28-6,36-37c5-21,17-65,26-98s20-78,25-100c17-75,63-254,81-311
			c5-17,9-42,9-57c0-14,5-29,10-32c6-3,10-17,10-31c0-13,9-57,21-97c12-39,25-90,29-112c21-105,69-222,154-380
			c75-139,261-337,406-433c85-57,90-59,175-101c191-92,415-145,610-144c152,0,361,39,462,84c24,10,47,19,52,19c16,0,200,98,251,133
			c147,103,230,185,368,367c21,27,78,131,121,218c43,88,79,206,97,317c17,98,18,397,3,479c-17,91-58,235-78,273c-5,10-29,58-52,108
			c-99,202-215,334-484,547c-110,87-224,177-253,201c-109,87-142,119-142,142c0,33,29,84,58,102c15,10,60,43,99,75
			c40,32,76,58,79,58c4,0,26,17,49,38c23,20,73,62,111,92c99,80,226,189,329,283c138,126,499,492,579,587c39,47,76,90,82,95
			c19,18,158,186,180,219c12,17,36,44,53,60c17,17,31,33,31,37s41,62,90,128c130,174,195,270,340,501c25,39,63,99,85,133
			c21,34,54,91,73,127s48,84,63,108c16,24,29,48,29,55s9,23,20,37s20,31,20,38s10,29,23,50c12,20,33,60,46,87c13,28,28,57,32,65
			c17,32,70,146,132,280c11,25,26,57,34,72c7,14,13,31,13,38c0,6,9,30,20,52c11,23,20,46,20,51s11,31,25,59c14,27,25,56,25,64
			c0,7,9,29,20,49s20,46,20,60c0,13,4,26,9,29c4,3,14,27,21,53c7,27,18,59,25,73c21,44,55,148,106,330c6,19,15,51,20,70
			c6,19,14,51,18,70s12,44,18,55s13,40,17,65c3,25,13,65,20,90c27,86,66,265,66,302c0,20,4,39,9,42s11,20,14,38s13,78,22,133
			s21,125,26,155s14,93,19,140c6,47,14,119,20,160c39,295,61,977,41,1250c-6,85-16,218-22,295c-5,77-14,174-19,215
			c-6,41-14,113-20,160c-5,47-14,110-19,140s-14,91-21,135c-6,44-18,107-27,140c-8,33-19,85-23,115c-5,30-18,91-29,134
			c-12,44-21,91-21,106c0,14-5,31-10,36c-6,6-17,42-24,80c-8,38-19,83-24,99c-6,17-16,50-22,75c-7,25-16,55-21,68s-9,33-9,45
			c0,13-4,27-8,32c-5,6-17,39-26,75c-10,36-27,87-37,114s-19,56-19,65s-7,25-15,35c-8,11-15,28-15,38c0,11-9,38-20,60
			c-11,23-20,50-20,60c0,9-9,33-20,53s-20,42-20,49c0,8-11,37-25,64c-14,28-25,56-25,64s-4,18-8,23c-5,6-15,26-22,45
			c-22,58-40,101-80,185c-21,44-50,107-65,140c-14,33-30,67-36,75c-5,8-12,22-15,30s-17,38-31,65c-15,28-35,68-46,90s-23,47-28,55
			c-10,18-67,119-99,175c-13,22-34,60-47,85s-33,59-43,75c-11,17-27,44-36,60c-32,56-253,392-303,460c-17,22-44,60-61,85
			c-61,86-125,172-168,223c-23,29-46,57-50,62c-80,111-333,387-581,635c-344,343-608,570-921,793c-14,10-50,36-80,57
			c-30,22-86,61-125,86c-95,63-103,69-153,104c-23,16-45,30-47,30c-3,0-27,15-53,33c-26,17-59,38-72,46c-123,72-195,113-253,144
			c-37,21-84,47-105,59c-58,33-389,198-397,198c-4,0-50,20-102,45s-98,45-104,45c-5,0-17,4-27,10c-40,22-130,60-143,60
			c-8,0-25,9-39,20s-36,20-51,20c-14,0-29,4-35,8c-5,5-31,17-59,26c-27,10-59,21-70,26c-11,4-69,25-130,45c-60,20-119,40-130,44
			c-33,14-201,61-217,61c-8,0-29,7-46,15c-35,18-117,43-182,55c-25,5-63,14-85,20s-58,15-80,20c-22,4-74,15-115,24s-100,21-130,26
			s-73,14-95,21c-22,6-75,15-117,19s-81,11-87,14c-13,9-307,47-431,56c-52,4-183,15-290,23C10469,20243,9940,20243,9690,20223z
			 M10060,19553c92-62,209-161,323-272c239-233,394-477,498-781c52-153,58-174,81-300c33-179,32-473-1-640c-34-168-105-351-205-525
			c-79-138-155-304-171-375c-53-228,25-439,216-587c150-117,296-168,479-167c149,0,258,38,386,135c150,115,264,319,300,539
			c25,150,12,352-27,453c-23,57-24,87-5,87c18,0,159-114,213-173c125-136,219-306,277-503c50-171,57-222,63-441c6-240-5-373-43-528
			c-14-55-29-118-35-140c-28-115-174-455-255-595c-17-30-42-75-56-100c-36-65-126-219-153-260c-12-19-40-62-61-95s-42-66-46-75
			c-5-8-30-49-58-90c-27-41-61-95-76-120s-55-88-89-140s-65-102-69-110s-12-24-19-35c-97-158-211-371-266-497
			c-97-220-150-512-129-703c18-164,48-259,116-360c58-86,139-152,240-196c72-31,84-33,192-33c101,0,123,3,185,28
			c256,100,474,351,554,638c50,179,56,240,51,588c-9,665-4,792,41,979c27,114,42,157,101,290c175,397,483,721,863,909
			c226,111,261,114,213,19c-26-52-34-70-82-182c-68-162-130-359-176-555c-12-52-26-108-31-125c-22-69-60-374-71-562
			c-13-227,0-576,27-741c9-51,20-123,25-160s18-110,30-162c11-52,25-120,31-150c5-30,39-183,74-340c36-157,71-314,79-350
			c124-550,149-1024,75-1395c-53-265-157-572-250-743c-217-396-431-666-717-905c-48-39-89-74-92-77c-12-12-161-120-218-159
			c-209-140-383-231-687-362c-194-83-580-193-837-238c-297-53-447-65-783-65c-275-1-345,3-500,22c-389,50-698,126-1010,250
			c-27,11-75,30-105,42c-182,72-458,230-655,375c-304,224-503,437-759,812c-48,71-75,117-171,298c-27,50-72,150-150,330
			c-55,129-155,468-194,661c-72,359-86,512-86,959c0,493,18,663,116,1115c47,213,167,593,244,765c7,17,27,64,45,105s78,163,133,270
			c321,624,372,733,426,910c18,58,36,115,41,127s19,77,32,145c30,162,32,395,4,543c-41,221-139,420-265,539c-50,48-42,60,32,52
			c224-25,503-144,718-307c154-117,324-306,421-469c58-98,112-205,128-255c7-22,16-44,20-50c13-18,49-139,73-245
			c36-153,52-314,51-495c-2-277-42-491-155-827c-33-101-67-203-74-228s-28-99-47-165c-59-202-73-291-72-470c1-139,4-173,28-265
			c61-242,184-410,366-503c255-131,550-62,802,188c273,268,410,572,469,1040c48,380,5,841-110,1182c-63,187-137,354-239,538
			c-75,135-95,170-102,180c-8,11-39,64-75,130c-12,22-32,56-43,75c-19,31-49,84-92,163c-119,218-204,425-251,617
			c-21,84-24,118-23,285c0,172,3,199,26,285c39,141,127,348,217,507c136,240,242,453,239,478c-3,18-9,20-68,17c-36-2-117-12-180-22
			s-137-21-165-25c-27-3-72-12-100-20c-27-7-97-23-155-35c-253-53-558-147-820-252c-269-108-631-287-830-411
			c-407-253-716-495-1054-827c-129-127-184-174-200-173c-11,1-50,9-86,17c-121,29-298,40-422,27c-62-7-160-16-218-21
			c-119-9-219-35-202-52c6-6,55-15,109-19c423-36,874-299,1101-644c123-186,186-350,217-565c41-280-6-519-179-915
			c-12-28-67-166-130-327c-49-124-117-322-136-393c-10-38-28-106-40-150c-103-377-162-966-140-1406c15-292,51-617,88-779
			c6-25,20-90,32-145c43-196,140-513,218-710c11-27,33-81,48-120c43-108,215-443,301-583c84-140,181-284,252-377
			c139-181,265-433,337-670c113-371,75-724-109-1030c-69-115-209-294-294-376c-61-60-399-339-410-339c-3,0-36,31-72,68
			c-36,38-120,106-185,153c-483,342-1001,835-1387,1319c-189,238-328,434-479,675c-24,39-53,86-65,105c-127,201-343,625-464,910
			c-80,191-218,574-256,710c-7,25-22,81-35,125c-92,329-169,710-214,1065c-41,319-59,772-46,1115c15,356,48,708,81,852
			c6,27,14,80,19,118c5,39,20,124,34,190c15,66,31,145,37,175c45,241,251,885,364,1145c10,22,24,54,31,70c40,92,66,149,154,330
			c54,110,115,229,135,265c21,36,49,85,62,110c56,101,217,361,250,405c5,6,33,48,65,95c31,47,69,102,85,122c15,20,48,65,73,99
			c42,60,220,285,273,346c49,57,183,208,202,228c208,222,521,521,664,635c24,19,48,40,55,45c47,42,139,115,236,188
			c63,48,121,92,128,98c29,24,384,258,487,320c379,229,745,407,1160,564c55,20,121,46,147,56c26,11,54,19,62,19s30,7,48,15
			c61,27,292,94,528,153c216,54,315,75,565,118c194,34,545,71,765,83c91,4,172,9,180,10C9998,19589,10030,19573,10060,19553z
			 M10720,19570c468-28,1044-131,1515-272c238-72,692-238,838-307c34-16,98-46,142-66c232-107,643-332,795-435c14-10,81-55,150-100
			c217-144,585-426,725-556c17-15,84-77,150-138c527-485,976-1047,1346-1686c75-130,291-548,304-591c4-13,25-60,45-104
			s46-102,57-130c21-49,26-64,77-195c36-95,165-483,187-565c92-339,177-754,199-975c5-47,16-132,24-190c42-293,56-930,28-1280
			c-26-329-95-794-157-1055c-26-110-61-252-89-355c-26-99-164-521-196-599c-10-26-39-98-64-161s-52-128-60-145c-8-16-35-75-60-131
			c-81-183-191-397-313-614c-76-134-183-300-363-564c-40-59-174-235-264-346c-299-372-689-764-1046-1051c-58-46-107-86-110-89
			c-6-6-201-152-295-220c-33-25-79-63-102-87c-22-24-49-43-58-43c-47,0-339,216-456,337c-127,132-218,272-301,464
			c-49,111-96,351-105,529c-5,113-3,136,21,240c15,63,33,133,41,156c19,57,83,221,105,269c10,22,31,67,46,100s69,148,122,255
			c169,349,262,542,262,546c0,2,8,23,19,47c38,87,45,105,91,247c57,172,100,345,145,585c24,130,45,375,51,605c5,169,2,268-15,465
			c-11,138-27,284-34,325c-8,41-25,129-37,195s-28,152-35,190c-23,112-52,305-77,505c-20,160-23,231-23,520c0,407,12,508,98,855
			c53,215,181,511,299,693c114,174,296,378,436,486c43,34,62,56,62,71c0,35-225,366-374,550c-454,562-943,987-1556,1353
			c-143,85-472,250-605,304c-55,22-106,44-115,48c-73,36-385,146-510,180c-42,11-70,48-70,91c0,47-86,314-145,449
			c-149,341-301,587-534,865c-131,155-376,387-503,474c-29,21-54,45-56,54C10368,19592,10335,19593,10720,19570z M12653,7803
			c5-156,28-326,56-415c5-18,22-73,36-123c54-186,162-427,255-569c159-243,396-488,712-737c160-125,180-140,474-346
			c291-204,289-202,439-313c312-231,407-355,451-590c18-96,17-157,0-250c-53-277-249-493-522-576c-91-28-305-26-400,4
			c-39,13-80,29-90,37c-11,8-25,15-31,15c-21,0-140,86-187,134c-56,56-118,148-151,221c-22,51-92,304-116,424c-5,24-16,67-24,95
			c-9,28-42,160-75,294c-84,345-130,433-295,567c-55,44-106,70-200,101c-68,22-98,26-196,26c-115,1-117,0-295-59
			c-98-33-215-70-259-83c-44-12-107-31-140-41c-33-9-80-22-105-28c-25-5-70-16-100-24c-111-30-319-72-480-97c-174-28-228-39-285-62
			c-211-82-365-247-428-460c-17-56-21-99-21-188c0-131,15-196,75-325c20-44,76-165,124-270c48-104,100-217,115-250s38-82,50-110
			c12-27,44-96,71-153s49-106,49-110s13-32,29-63c15-30,52-109,81-175c29-65,77-171,107-234c131-276,172-395,198-565
			c39-262-4-565-110-783c-19-40-35-74-35-77c0-13-93-152-151-225c-284-360-753-566-1188-521c-398,42-724,222-972,536
			c-238,301-346,724-279,1087c31,169,66,277,150,453c21,44,49,105,63,135c56,124,193,422,238,518c27,57,49,105,49,108
			c0,2,21,47,46,101c46,97,75,159,233,507c96,211,121,297,121,416c0,181-70,348-205,485c-123,125-236,177-475,214
			c-191,31-480,90-590,120c-36,10-85,23-110,30c-41,10-106,28-235,66c-27,8-117,37-200,65c-170,58-269,73-385,60
			c-155-18-288-87-397-204c-119-130-126-148-268-711c-69-275-137-530-151-567c-75-198-237-348-464-429c-56-20-84-23-210-23
			c-132,0-151,2-219,27c-133,48-236,117-328,219c-54,58-85,111-144,243c-30,67-39,292-15,400c17,80,73,196,129,270
			c51,67,91,103,292,260c180,141,584,465,655,525c30,26,143,119,250,206c107,88,204,167,215,177c11,9,78,65,150,124
			c297,247,570,644,664,968c56,191,81,348,81,517c0,51,4,99,9,106c9,15,21,10,111-48c106-67,223-132,343-189c70-34,130-61,133-61
			s20-6,37-14c68-31,117-49,262-95c155-50,198-62,325-91c455-106,732-140,1125-140c226,0,509,19,670,44c50,8,113,18,140,21
			c61,8,364,75,495,109c126,33,348,107,490,163c201,79,549,256,649,329C12647,7992,12647,7993,12653,7803z"/>
		<path class="st2" d="M5494,15438c-9-18-38-64-64-103c-139-206-307-514-420-770c-61-137-147-350-157-390c-3-11-11-33-18-50
			c-34-77-160-532-194-700c-28-141-61-353-83-535c-20-172-23-241-23-590c0-346,3-419,23-593c40-349,69-505,166-882
			c28-108,94-322,106-344c4-9,18-46,30-81c58-172,178-449,276-635c31-60,66-128,77-150s35-64,53-93c19-29,34-54,34-57
			c0-7,158-253,224-348c174-252,521-667,557-667c14,0-11,48-76,150c-135,210-325,565-422,790c-25,58-51,119-58,135
			c-7,17-23,53-35,80c-12,28-28,68-35,90s-28,78-45,125c-37,98-85,243-105,315c-7,28-27,102-45,165c-137,498-192,1132-140,1619
			c30,284,77,534,138,736c75,248,57,199,249,685c97,247,103,264,133,345c12,33,28,76,36,95c7,19,19,58,25,85c7,28,15,57,20,65
			c15,31,59,262,74,392c41,344-19,698-170,1016c-57,118-66,132-89,132C5517,15470,5506,15461,5494,15438z"/>
		<path class="st3" d="M10760,15347c-113-42-202-117-270-230c-30-52-60-167-60-236c0-62,26-165,58-227c27-52,113-147,166-183
			c96-64,243-94,360-72c181,34,345,189,386,364c14,60,12,194-4,252c-36,138-132,248-276,318c-60,29-74,32-180,34
			C10839,15370,10817,15367,10760,15347z M11055,15151c60.5-27.8,96.2-68.5,103.5-77.8c20.9-26.6,32.6-52.7,39.3-71.4
			c12.6-43.3,17.8-80.1,20.2-106.7c4.6-52.7-1.3-77.1-2.9-84.7c-3.4-15.5-9.4-30.2-19.1-50.3c-24-51-37-69-92-118
			c-24-21-142-67-151-59c-7,7,30,41,68,62c116,64.1,135.5,261.1,78,375c-11,21.7-23.4,37.1-29.5,44.3
			c-50.3,53.3-70.8,70.9-79.5,75.7c-2.3,1.3-10.6,6.2-14,15C10968,15176,11005,15174,11055,15151z"/>
		<path class="st3" d="M7582,14120c-152-32-314-199-351-360c-14-60-14-167,0-232c58-268,375-447,626-353c86,33,138,64,189,112
			c207,196,205,519-5,715c-40,37-90,72-130,90c-56,26-79,30-175,34C7675,14128,7606,14125,7582,14120z M7837,13915
			c51-23,98-67,138-129c2.5-3.9,5.3-9.2,8.9-16.4c28.5-57.7,27.2-111.1,26.3-135.5c-2-53.4-17.2-92.9-24.1-108.8
			c-2.1-4.8-6.8-16.7-15.1-30.2c-47-77-113-126-189-141c-45-9-41,10,8,41c47,30,82,82,104,155c28,95,16,190-36,266
			c-30,44-92,104-108,104c-6,0-10,5-10,10C7740,13947,7783,13941,7837,13915z"/>
		<path class="st3" d="M12851,13640c-117-25-222-148-238-279c-9-79,28-181,87-240c73-73,128-96,230-96c100,0,147,20,223,93
			c80,79,110,211,72,323c-20,59-90,138-152,171C13017,13643,12922,13655,12851,13640z M13049,13475c88-74,88-200,0-279
			c-23.3-20.9-58.1-43.2-67.3-35.1c-6.9,6.1,5.3,25.4,15.8,54.4c23.2,64.3,35.1,170,6.8,217.9c0,0-14.2,24.1-14.3,60.8
			C12990,13494.9,13000.9,13515.4,13049,13475z"/>
		<path class="st3" d="M10570,12034c-438-132-626-642-378-1026c50-78,78-108,152-165c158-124,354-168,566-127c45,8,90,19,99,24
			s41,21,71,35c73,35,158,106,222,185c166,207,189,512,57,757c-54,102-187,226-299,281c-86,42-147,55-275,58
			C10668,12060,10647,12058,10570,12034z M10918,11869c152-51,271-165,329-316c22-58,26-84,26-173s-4-115-26-173
			c-15-37-40-87-56-111c-43-62-135-143-201-176c-63-32-177-57-206-46c-18,7-18,8,1,22c11,9,44,27,72,40c189,90,293,298,262,523
			c-12,87-35,143-91,222c-48,69-105,113-201,158c-37,18-65,36-62,41C10775,11897,10853,11891,10918,11869z"/>
		<path class="st3" d="M7333,11871c-319-109-509-442-437-764c49-219,216-409,427-486c65-23,86-26,212-26c168,0,245,20,359,95
			c196,129,306,328,306,553c0,299-184,547-474,636c-54,17-94,21-190,21C7430,11899,7405,11896,7333,11871z M7687,11714
			c94-40,132-63,189-116c162-152,199-386,93-588c-13-25-51-72-84-106c-90-92-244-159-320-140c-37,9-31,33,11,40
			c72,14,182,103,237,193c52,83,69,157,65,273c-4,93-8,112-37,172c-54,113-181,230-273,252c-16,3-28,13-28,21
			C7540,11736,7637,11735,7687,11714z"/>
		<path class="st4" d="M8914,11701c-63-29-89-73-89-148c0-59,2-65,37-99c31-32,45-38,91-42c69-5,115,10,147,51c34,42,36,141,4,184
			C9058,11709,8979,11731,8914,11701z"/>
		<path class="st3" d="M12475,11545c-134-42-249-142-311-270c-38-80-38-80-39-205v-125l40-80c69-137,179-230,317-266
			c171-45,333-6,461,111c64,58,105,125,137,220c19,55,21,80,17,165c-8,146-49,239-150,332c-104,96-202,134-341,132
			C12556,11558,12497,11552,12475,11545z M12758,11356c58-30,114-89,144-151c72-152,5-343-148-420c-64-32-156-39-162-13
			c-2,13,8,22,37,34c45,18,90,63,123,127c20,36,23,57,23,142c-1,87-4,105-25,140c-32,54-69,94-105,112c-78,41-59,78,28,58
			C12702,11378,12740,11365,12758,11356z"/>
		<path class="st4" d="M9663,10615c-86-69-81-198,11-258c32-21,117-22,156-2c85,44,101,182,29,251c-25,24-39,29-97,32
			C9702,10641,9692,10638,9663,10615z"/>
		<path class="st4" d="M7945,10281c-47-28-69-69-69-126c-1-101,57-157,157-154c69,3,108,28,132,86c30,71,12,140-48,186
			C8073,10307,7993,10311,7945,10281z"/>
		<path class="st3" d="M8694,10145c-230-50-400-199-475-415c-32-93-32-286,0-378c33-95,76-166,145-235c129-133,261-188,446-188
			c178,0,303,53,436,185c194,195,231,490,91,736c-45,80-158,189-242,232c-82,42-218,78-289,77C8778,10159,8727,10152,8694,10145z
			 M8931,9966c146-45,258-158,300-305c60-211-43-432-246-527c-57-27-123-39-161-30c-34,9-26,26,19,42c82,29,170,110,214,199
			c55,110,56,269,4,382c-37,77-131,177-178,187c-34,8-83,41-83,57C8800,9985,8879,9982,8931,9966z"/>
		<path class="st3" d="M10895,10144c-160-34-264-86-364-186c-190-186-247-456-151-706c40-104,75-155,163-238
			c167-159,391-219,610-163c122,31,209,80,304,175c71,69,89,94,127,176c56,119,71,199,63,338c-7,116-33,198-99,307
			c-80,133-257,255-420,287C11057,10149,10942,10153,10895,10144z M11205,9928c168-81,275-252,275-438c0-178-101-347-255-428
			c-95-50-223-79-239-54c-3,5,30,26,72,48c106,54,183,131,230,231c36,77,37,80,37,203s-1,126-38,203c-47,102-138,194-217,223
			c-36,13-56,26-58,38c-4,18,1,19,61,13C11117,9963,11161,9950,11205,9928z"/>
		<path class="st4" d="M12305,10116c-37-17-55-32-67-60c-44-91-4-194,84-220c42-12,55-12,98,1c69,20,100,65,100,146
			c0,75-30,118-97,141C12364,10144,12365,10144,12305,10116z"/>
		<path class="st4" d="M9829,8982c-56-15-109-84-109-143c0-52,39-115,85-138c53-26,95-27,145-1c57,29,75,61,75,136
			c0,70-20,108-70,133C9922,8985,9864,8991,9829,8982z"/>
		<path class="st2" d="M15806,15505c-161-109-458-365-554-479c-243-285-485-716-577-1026c-9-30-21-65-26-78c-20-49-59-257-70-369
			c-13-129-7-400,11-498c31-173,35-187,255-875c22-69,43-175,82-405c28-171,26-692-5-905c-56-391-159-778-306-1145
			c-41-102-37-93-105-238c-28-60-51-111-51-114c0-14-234-467-292-566c-15-26-28-50-28-52c0-3-17-31-37-62c-21-32-45-72-54-89
			c-19-34-105-166-170-259c-40-58-112-150-219-282c-48-59-60-83-42-83c36,0,460,402,658,626c299,335,570,732,782,1144
			c84,165,221,470,256,574c9,25,29,81,45,124c16,42,41,118,56,167c15,50,30,101,35,115c32,94,92,347,124,520c76,413,91,592,91,1055
			c0,469-9,565-91,1030c-45,253-145,624-226,835c-98,256-91,226-74,289c51,190,182,449,341,676c27,39,82,117,121,175
			c40,58,87,124,104,147c29,39,35,73,12,73C15847,15530,15826,15519,15806,15505z"/>
	</g>
</g>
</svg>
